<?xml version="1.0" encoding="UTF-8"?>
<svg xmlns="http://www.w3.org/2000/svg" xmlns:xlink="http://www.w3.org/1999/xlink" width="2000" height="2000" viewBox="0 0 2000 2000">

<path fill-rule="nonzero" fill="rgb(12.939453%, 12.939453%, 12.156677%)" fill-opacity="1" d="M 1048.421875 848.039062 L 1001.5 894.851562 C 999.464844 896.890625 997.597656 899.058594 995.828125 901.300781 C 995.292969 901.960938 994.808594 902.671875 994.296875 903.359375 C 993.074219 905.011719 991.929688 906.710938 990.855469 908.460938 C 990.398438 909.210938 989.921875 909.960938 989.496094 910.730469 C 988.304688 912.820312 987.230469 914.96875 986.265625 917.171875 C 986.09375 917.558594 985.890625 917.910156 985.734375 918.289062 C 984.636719 920.898438 983.703125 923.578125 982.921875 926.308594 C 982.867188 926.5 982.820312 926.710938 982.777344 926.910156 C 1004.128906 932.96875 1023.699219 944.421875 1039.660156 960.449219 C 1062.890625 983.679688 1076.421875 1014.578125 1077.761719 1047.46875 C 1077.761719 1047.5625 1077.789062 1047.640625 1077.789062 1047.730469 C 1077.789062 1047.785156 1077.789062 1047.828125 1077.789062 1047.875 C 1077.789062 1047.890625 1077.789062 1047.898438 1077.789062 1047.898438 C 1079.378906 1084.40625 1065.410156 1120.289062 1039.449219 1146.15625 L 978.46875 1207.070312 C 978.367188 1207.171875 978.230469 1207.238281 978.128906 1207.351562 L 804.355469 1380.753906 C 779.609375 1405.5 746.671875 1419.140625 711.617188 1419.140625 C 676.515625 1419.140625 643.5 1405.453125 618.652344 1380.59375 C 593.882812 1355.78125 580.265625 1322.773438 580.308594 1287.648438 C 580.34375 1252.523438 594.019531 1219.546875 618.808594 1194.785156 L 779.925781 1033.996094 C 779.484375 1032.601562 779.179688 1031.175781 778.757812 1029.769531 C 777.921875 1026.972656 777.183594 1024.140625 776.429688 1021.304688 C 775.019531 1016.0625 773.753906 1010.769531 772.640625 1005.433594 C 772.019531 1002.441406 771.417969 999.449219 770.894531 996.441406 C 769.921875 990.851562 769.175781 985.21875 768.527344 979.550781 C 768.222656 976.898438 767.835938 974.261719 767.609375 971.589844 C 766.898438 963.28125 766.457031 954.921875 766.457031 946.488281 C 766.464844 940.21875 766.714844 933.949219 767.136719 927.699219 C 767.269531 925.601562 767.53125 923.511719 767.710938 921.421875 C 768.085938 917.261719 768.472656 913.101562 769.019531 908.980469 C 769.105469 908.308594 769.140625 907.628906 769.230469 906.960938 L 549.945312 1125.785156 C 460.636719 1214.921875 460.492188 1360.109375 549.636719 1449.449219 C 592.839844 1492.773438 650.363281 1516.640625 711.617188 1516.640625 C 772.640625 1516.640625 830.027344 1492.890625 873.222656 1449.765625 L 1108.339844 1215.214844 C 1124.429688 1199.191406 1137.96875 1180.964844 1148.609375 1161.023438 C 1174.28125 1112.789062 1181.71875 1057.550781 1170.378906 1004.945312 C 1167.761719 992.808594 1164.140625 980.800781 1159.519531 969.058594 C 1148.050781 939.941406 1130.960938 913.859375 1108.699219 891.550781 C 1090.890625 873.679688 1070.679688 859.101562 1048.421875 848.039062 "/>
<path fill-rule="nonzero" fill="rgb(12.939453%, 12.939453%, 12.156677%)" fill-opacity="1" d="M 825.058594 931.019531 C 824.695312 936.179688 824.476562 941.351562 824.46875 946.539062 C 824.46875 975.789062 829.824219 1004.1875 840.386719 1030.90625 C 851.816406 1059.921875 868.949219 1086.003906 891.351562 1108.449219 C 909.105469 1126.304688 929.296875 1140.886719 951.550781 1151.9375 L 998.476562 1105.097656 C 1000.539062 1103.042969 1002.421875 1100.847656 1004.199219 1098.589844 C 1004.761719 1097.890625 1005.261719 1097.152344 1005.78125 1096.4375 C 1006.949219 1094.816406 1008.089844 1093.152344 1009.128906 1091.453125 C 1009.648438 1090.582031 1010.160156 1089.707031 1010.648438 1088.824219 C 1011.589844 1087.125 1012.449219 1085.390625 1013.25 1083.621094 C 1013.648438 1082.75 1014.070312 1081.890625 1014.421875 1081.007812 C 1015.351562 1078.753906 1016.140625 1076.453125 1016.839844 1074.117188 C 1016.941406 1073.765625 1017.089844 1073.425781 1017.179688 1073.074219 C 995.910156 1067.015625 976.363281 1055.59375 960.363281 1039.59375 C 937.429688 1016.660156 923.972656 986.339844 922.273438 954.019531 L 922.273438 954 C 922.25 953.628906 922.179688 953.261719 922.171875 952.878906 C 922 950.828125 921.964844 948.71875 921.964844 946.691406 C 922.054688 911.53125 935.742188 878.558594 960.511719 853.800781 L 1195.640625 619.238281 C 1220.488281 594.488281 1253.441406 580.871094 1288.441406 580.871094 C 1323.539062 580.871094 1356.550781 594.558594 1381.398438 619.410156 C 1432.519531 670.710938 1432.398438 754.011719 1381.171875 805.148438 L 1219.980469 966.011719 C 1220.570312 967.859375 1221.03125 969.71875 1221.578125 971.578125 C 1222.378906 974.261719 1223.191406 976.949219 1223.898438 979.671875 C 1224.53125 982.039062 1225.078125 984.429688 1225.640625 986.808594 C 1226.308594 989.589844 1226.96875 992.371094 1227.550781 995.171875 C 1228.03125 997.519531 1228.449219 999.910156 1228.878906 1002.273438 C 1229.390625 1005.105469 1229.890625 1007.925781 1230.320312 1010.757812 C 1230.671875 1013.140625 1230.96875 1015.53125 1231.261719 1017.917969 C 1231.609375 1020.753906 1231.949219 1023.570312 1232.230469 1026.40625 C 1232.449219 1028.820312 1232.621094 1031.230469 1232.78125 1033.644531 C 1232.96875 1036.457031 1233.148438 1039.265625 1233.261719 1042.074219 C 1233.359375 1044.535156 1233.398438 1046.980469 1233.441406 1049.441406 C 1233.46875 1052.203125 1233.480469 1054.980469 1233.441406 1057.746094 C 1233.398438 1060.238281 1233.328125 1062.71875 1233.21875 1065.203125 C 1233.109375 1067.933594 1232.960938 1070.675781 1232.769531 1073.402344 C 1232.589844 1075.90625 1232.371094 1078.398438 1232.128906 1080.90625 C 1231.871094 1083.613281 1231.570312 1086.308594 1231.238281 1088.992188 C 1231.070312 1090.308594 1230.980469 1091.625 1230.800781 1092.925781 L 1450.039062 874.148438 C 1493.25 831.070312 1517.058594 773.640625 1517.128906 712.421875 C 1517.199219 651.210938 1493.511719 593.730469 1450.429688 550.550781 C 1407.210938 507.21875 1349.691406 483.359375 1288.441406 483.359375 C 1227.390625 483.359375 1169.96875 507.109375 1126.78125 550.25 L 891.65625 784.78125 C 875.535156 800.921875 861.925781 819.148438 851.253906 838.960938 C 851.253906 838.96875 851.242188 838.96875 851.242188 838.980469 C 836.183594 867.191406 827.265625 898.738281 825.058594 931.019531 "/>
</svg>
